<mxfile host="app.diagrams.net" modified="2024-01-02T08:33:36.631Z" agent="Mozilla/5.0 (Windows NT 10.0; Win64; x64) AppleWebKit/537.36 (KHTML, like Gecko) Chrome/120.0.0.0 Safari/537.36" etag="UPPsA6eODFe5hptrSUHn" version="22.1.16" type="device">
  <diagram id="jbVRNizJcDCQ8yqokmnY" name="第 1 页">
    <mxGraphModel dx="2607" dy="1342" grid="1" gridSize="10" guides="1" tooltips="1" connect="1" arrows="1" fold="1" page="1" pageScale="1" pageWidth="2336" pageHeight="1654" math="0" shadow="0">
      <root>
        <mxCell id="0" />
        <mxCell id="1" parent="0" />
        <mxCell id="_HgupfXg40LZJNDoUt4P-238" value="" style="rounded=0;whiteSpace=wrap;html=1;" vertex="1" parent="1">
          <mxGeometry x="580" y="40" width="1110" height="1000" as="geometry" />
        </mxCell>
        <mxCell id="_HgupfXg40LZJNDoUt4P-141" value="&lt;font style=&quot;font-size: 23px;&quot;&gt;車輛編號&lt;/font&gt;" style="rounded=1;whiteSpace=wrap;html=1;" vertex="1" parent="1">
          <mxGeometry x="720" y="110" width="120" height="60" as="geometry" />
        </mxCell>
        <mxCell id="_HgupfXg40LZJNDoUt4P-142" value="&lt;font style=&quot;font-size: 23px;&quot;&gt;車型&lt;/font&gt;" style="rounded=1;whiteSpace=wrap;html=1;" vertex="1" parent="1">
          <mxGeometry x="840" y="110" width="100" height="60" as="geometry" />
        </mxCell>
        <mxCell id="_HgupfXg40LZJNDoUt4P-143" value="&lt;span style=&quot;font-size: 23px;&quot;&gt;座位數&lt;/span&gt;" style="rounded=1;whiteSpace=wrap;html=1;" vertex="1" parent="1">
          <mxGeometry x="940" y="110" width="100" height="60" as="geometry" />
        </mxCell>
        <mxCell id="_HgupfXg40LZJNDoUt4P-144" value="&lt;font style=&quot;font-size: 23px;&quot;&gt;車輛&lt;/font&gt;" style="rounded=0;whiteSpace=wrap;html=1;" vertex="1" parent="1">
          <mxGeometry x="840" y="220" width="100" height="50" as="geometry" />
        </mxCell>
        <mxCell id="_HgupfXg40LZJNDoUt4P-147" value="" style="endArrow=none;html=1;rounded=0;entryX=0.5;entryY=1;entryDx=0;entryDy=0;exitX=0.25;exitY=0;exitDx=0;exitDy=0;" edge="1" parent="1" source="_HgupfXg40LZJNDoUt4P-144" target="_HgupfXg40LZJNDoUt4P-141">
          <mxGeometry width="50" height="50" relative="1" as="geometry">
            <mxPoint x="700" y="300" as="sourcePoint" />
            <mxPoint x="750" y="250" as="targetPoint" />
          </mxGeometry>
        </mxCell>
        <mxCell id="_HgupfXg40LZJNDoUt4P-150" value="" style="endArrow=none;html=1;rounded=0;entryX=0.5;entryY=1;entryDx=0;entryDy=0;exitX=0.5;exitY=0;exitDx=0;exitDy=0;" edge="1" parent="1" source="_HgupfXg40LZJNDoUt4P-144" target="_HgupfXg40LZJNDoUt4P-142">
          <mxGeometry width="50" height="50" relative="1" as="geometry">
            <mxPoint x="660" y="310" as="sourcePoint" />
            <mxPoint x="710" y="260" as="targetPoint" />
          </mxGeometry>
        </mxCell>
        <mxCell id="_HgupfXg40LZJNDoUt4P-151" value="" style="endArrow=none;html=1;rounded=0;entryX=0.5;entryY=1;entryDx=0;entryDy=0;exitX=0.867;exitY=0.027;exitDx=0;exitDy=0;exitPerimeter=0;" edge="1" parent="1" source="_HgupfXg40LZJNDoUt4P-144" target="_HgupfXg40LZJNDoUt4P-143">
          <mxGeometry width="50" height="50" relative="1" as="geometry">
            <mxPoint x="810" y="390" as="sourcePoint" />
            <mxPoint x="860" y="340" as="targetPoint" />
          </mxGeometry>
        </mxCell>
        <mxCell id="_HgupfXg40LZJNDoUt4P-152" value="&lt;font style=&quot;font-size: 23px;&quot;&gt;開往&lt;/font&gt;" style="rhombus;whiteSpace=wrap;html=1;" vertex="1" parent="1">
          <mxGeometry x="1070" y="200" width="140" height="90" as="geometry" />
        </mxCell>
        <mxCell id="_HgupfXg40LZJNDoUt4P-153" value="&lt;span style=&quot;font-size: 23px;&quot;&gt;站名&lt;/span&gt;" style="rounded=1;whiteSpace=wrap;html=1;" vertex="1" parent="1">
          <mxGeometry x="1290" y="90" width="100" height="60" as="geometry" />
        </mxCell>
        <mxCell id="_HgupfXg40LZJNDoUt4P-154" value="&lt;span style=&quot;font-size: 23px;&quot;&gt;里程&lt;/span&gt;" style="rounded=1;whiteSpace=wrap;html=1;" vertex="1" parent="1">
          <mxGeometry x="1420" y="90" width="100" height="60" as="geometry" />
        </mxCell>
        <mxCell id="_HgupfXg40LZJNDoUt4P-155" value="&lt;font style=&quot;font-size: 23px;&quot;&gt;目標站名&lt;/font&gt;" style="rounded=0;whiteSpace=wrap;html=1;" vertex="1" parent="1">
          <mxGeometry x="1360" y="220" width="100" height="50" as="geometry" />
        </mxCell>
        <mxCell id="_HgupfXg40LZJNDoUt4P-156" value="" style="endArrow=none;html=1;rounded=0;entryX=0.5;entryY=1;entryDx=0;entryDy=0;exitX=0.5;exitY=0;exitDx=0;exitDy=0;" edge="1" parent="1" source="_HgupfXg40LZJNDoUt4P-155" target="_HgupfXg40LZJNDoUt4P-153">
          <mxGeometry width="50" height="50" relative="1" as="geometry">
            <mxPoint x="1420" y="370" as="sourcePoint" />
            <mxPoint x="1470" y="320" as="targetPoint" />
          </mxGeometry>
        </mxCell>
        <mxCell id="_HgupfXg40LZJNDoUt4P-157" value="" style="endArrow=none;html=1;rounded=0;entryX=0.5;entryY=1;entryDx=0;entryDy=0;exitX=0.5;exitY=0;exitDx=0;exitDy=0;" edge="1" parent="1" source="_HgupfXg40LZJNDoUt4P-155" target="_HgupfXg40LZJNDoUt4P-154">
          <mxGeometry width="50" height="50" relative="1" as="geometry">
            <mxPoint x="1520" y="260" as="sourcePoint" />
            <mxPoint x="1570" y="210" as="targetPoint" />
          </mxGeometry>
        </mxCell>
        <mxCell id="_HgupfXg40LZJNDoUt4P-159" value="" style="endArrow=none;html=1;rounded=0;entryX=0;entryY=0.5;entryDx=0;entryDy=0;exitX=1;exitY=0.5;exitDx=0;exitDy=0;" edge="1" parent="1" source="_HgupfXg40LZJNDoUt4P-144" target="_HgupfXg40LZJNDoUt4P-152">
          <mxGeometry width="50" height="50" relative="1" as="geometry">
            <mxPoint x="840" y="400" as="sourcePoint" />
            <mxPoint x="890" y="350" as="targetPoint" />
          </mxGeometry>
        </mxCell>
        <mxCell id="_HgupfXg40LZJNDoUt4P-160" value="&lt;font style=&quot;font-size: 23px;&quot;&gt;n&lt;/font&gt;" style="text;html=1;strokeColor=none;fillColor=none;align=center;verticalAlign=middle;whiteSpace=wrap;rounded=0;" vertex="1" parent="1">
          <mxGeometry x="980" y="210" width="60" height="30" as="geometry" />
        </mxCell>
        <mxCell id="_HgupfXg40LZJNDoUt4P-161" value="" style="endArrow=none;html=1;rounded=0;entryX=0;entryY=0.5;entryDx=0;entryDy=0;exitX=1;exitY=0.5;exitDx=0;exitDy=0;" edge="1" parent="1" source="_HgupfXg40LZJNDoUt4P-152" target="_HgupfXg40LZJNDoUt4P-155">
          <mxGeometry width="50" height="50" relative="1" as="geometry">
            <mxPoint x="1350" y="420" as="sourcePoint" />
            <mxPoint x="1400" y="370" as="targetPoint" />
          </mxGeometry>
        </mxCell>
        <mxCell id="_HgupfXg40LZJNDoUt4P-162" value="&lt;font style=&quot;font-size: 23px;&quot;&gt;m&lt;/font&gt;" style="text;html=1;strokeColor=none;fillColor=none;align=center;verticalAlign=middle;whiteSpace=wrap;rounded=0;" vertex="1" parent="1">
          <mxGeometry x="1270" y="210" width="60" height="30" as="geometry" />
        </mxCell>
        <mxCell id="_HgupfXg40LZJNDoUt4P-164" value="&lt;span style=&quot;font-size: 23px;&quot;&gt;車次&lt;/span&gt;" style="rounded=1;whiteSpace=wrap;html=1;" vertex="1" parent="1">
          <mxGeometry x="970" y="320" width="110" height="50" as="geometry" />
        </mxCell>
        <mxCell id="_HgupfXg40LZJNDoUt4P-165" value="&lt;span style=&quot;font-size: 23px;&quot;&gt;發車時間&lt;/span&gt;" style="rounded=1;whiteSpace=wrap;html=1;" vertex="1" parent="1">
          <mxGeometry x="1080" y="320" width="110" height="50" as="geometry" />
        </mxCell>
        <mxCell id="_HgupfXg40LZJNDoUt4P-166" value="&lt;span style=&quot;font-size: 23px;&quot;&gt;剪票口&lt;/span&gt;" style="rounded=1;whiteSpace=wrap;html=1;" vertex="1" parent="1">
          <mxGeometry x="1190" y="320" width="110" height="50" as="geometry" />
        </mxCell>
        <mxCell id="_HgupfXg40LZJNDoUt4P-167" value="&lt;span style=&quot;font-size: 23px;&quot;&gt;車型&lt;/span&gt;" style="rounded=1;whiteSpace=wrap;html=1;" vertex="1" parent="1">
          <mxGeometry x="1020" y="400" width="110" height="50" as="geometry" />
        </mxCell>
        <mxCell id="_HgupfXg40LZJNDoUt4P-168" value="&lt;span style=&quot;font-size: 23px;&quot;&gt;價格&lt;/span&gt;" style="rounded=1;whiteSpace=wrap;html=1;" vertex="1" parent="1">
          <mxGeometry x="1130" y="400" width="110" height="50" as="geometry" />
        </mxCell>
        <mxCell id="_HgupfXg40LZJNDoUt4P-169" value="&lt;span style=&quot;font-size: 23px;&quot;&gt;運價&lt;/span&gt;" style="rounded=0;whiteSpace=wrap;html=1;" vertex="1" parent="1">
          <mxGeometry x="1070" y="520" width="100" height="50" as="geometry" />
        </mxCell>
        <mxCell id="_HgupfXg40LZJNDoUt4P-170" value="" style="endArrow=none;html=1;rounded=0;entryX=0.5;entryY=1;entryDx=0;entryDy=0;exitX=0.5;exitY=0;exitDx=0;exitDy=0;" edge="1" parent="1" source="_HgupfXg40LZJNDoUt4P-164" target="_HgupfXg40LZJNDoUt4P-152">
          <mxGeometry width="50" height="50" relative="1" as="geometry">
            <mxPoint x="840" y="450" as="sourcePoint" />
            <mxPoint x="890" y="400" as="targetPoint" />
          </mxGeometry>
        </mxCell>
        <mxCell id="_HgupfXg40LZJNDoUt4P-171" value="" style="endArrow=none;html=1;rounded=0;entryX=0.5;entryY=1;entryDx=0;entryDy=0;exitX=0.5;exitY=0;exitDx=0;exitDy=0;" edge="1" parent="1" source="_HgupfXg40LZJNDoUt4P-165" target="_HgupfXg40LZJNDoUt4P-152">
          <mxGeometry width="50" height="50" relative="1" as="geometry">
            <mxPoint x="790" y="450" as="sourcePoint" />
            <mxPoint x="840" y="400" as="targetPoint" />
          </mxGeometry>
        </mxCell>
        <mxCell id="_HgupfXg40LZJNDoUt4P-172" value="" style="endArrow=none;html=1;rounded=0;entryX=0.5;entryY=1;entryDx=0;entryDy=0;exitX=0.5;exitY=0;exitDx=0;exitDy=0;" edge="1" parent="1" source="_HgupfXg40LZJNDoUt4P-166" target="_HgupfXg40LZJNDoUt4P-152">
          <mxGeometry width="50" height="50" relative="1" as="geometry">
            <mxPoint x="720" y="430" as="sourcePoint" />
            <mxPoint x="770" y="380" as="targetPoint" />
          </mxGeometry>
        </mxCell>
        <mxCell id="_HgupfXg40LZJNDoUt4P-176" value="" style="endArrow=none;html=1;rounded=0;entryX=0.5;entryY=1;entryDx=0;entryDy=0;exitX=0.5;exitY=0;exitDx=0;exitDy=0;" edge="1" parent="1" source="_HgupfXg40LZJNDoUt4P-169" target="_HgupfXg40LZJNDoUt4P-167">
          <mxGeometry width="50" height="50" relative="1" as="geometry">
            <mxPoint x="710" y="460" as="sourcePoint" />
            <mxPoint x="760" y="410" as="targetPoint" />
          </mxGeometry>
        </mxCell>
        <mxCell id="_HgupfXg40LZJNDoUt4P-177" value="" style="endArrow=none;html=1;rounded=0;entryX=0.5;entryY=1;entryDx=0;entryDy=0;exitX=0.5;exitY=0;exitDx=0;exitDy=0;" edge="1" parent="1" source="_HgupfXg40LZJNDoUt4P-169" target="_HgupfXg40LZJNDoUt4P-168">
          <mxGeometry width="50" height="50" relative="1" as="geometry">
            <mxPoint x="1340" y="540" as="sourcePoint" />
            <mxPoint x="1390" y="490" as="targetPoint" />
          </mxGeometry>
        </mxCell>
        <mxCell id="_HgupfXg40LZJNDoUt4P-178" value="&lt;span style=&quot;font-size: 23px;&quot;&gt;退票時間&lt;/span&gt;" style="rounded=1;whiteSpace=wrap;html=1;" vertex="1" parent="1">
          <mxGeometry x="740" y="580" width="110" height="50" as="geometry" />
        </mxCell>
        <mxCell id="_HgupfXg40LZJNDoUt4P-179" value="&lt;span style=&quot;font-size: 23px;&quot;&gt;票價&lt;/span&gt;" style="rounded=1;whiteSpace=wrap;html=1;" vertex="1" parent="1">
          <mxGeometry x="850" y="580" width="110" height="50" as="geometry" />
        </mxCell>
        <mxCell id="_HgupfXg40LZJNDoUt4P-180" value="&lt;span style=&quot;font-size: 23px;&quot;&gt;應退款&lt;/span&gt;" style="rounded=1;whiteSpace=wrap;html=1;" vertex="1" parent="1">
          <mxGeometry x="960" y="580" width="110" height="50" as="geometry" />
        </mxCell>
        <mxCell id="_HgupfXg40LZJNDoUt4P-181" value="&lt;span style=&quot;font-size: 23px;&quot;&gt;退票時間&lt;/span&gt;" style="rounded=1;whiteSpace=wrap;html=1;" vertex="1" parent="1">
          <mxGeometry x="670" y="670" width="110" height="50" as="geometry" />
        </mxCell>
        <mxCell id="_HgupfXg40LZJNDoUt4P-182" value="&lt;span style=&quot;font-size: 23px;&quot;&gt;預訂號&lt;/span&gt;" style="rounded=1;whiteSpace=wrap;html=1;" vertex="1" parent="1">
          <mxGeometry x="660" y="910" width="90" height="50" as="geometry" />
        </mxCell>
        <mxCell id="_HgupfXg40LZJNDoUt4P-183" value="&lt;span style=&quot;font-size: 23px;&quot;&gt;車次&lt;/span&gt;" style="rounded=1;whiteSpace=wrap;html=1;" vertex="1" parent="1">
          <mxGeometry x="755" y="910" width="80" height="50" as="geometry" />
        </mxCell>
        <mxCell id="_HgupfXg40LZJNDoUt4P-184" value="&lt;span style=&quot;font-size: 23px;&quot;&gt;站名&lt;/span&gt;" style="rounded=1;whiteSpace=wrap;html=1;" vertex="1" parent="1">
          <mxGeometry x="835" y="910" width="80" height="50" as="geometry" />
        </mxCell>
        <mxCell id="_HgupfXg40LZJNDoUt4P-185" value="&lt;span style=&quot;font-size: 23px;&quot;&gt;乘車日期&lt;/span&gt;" style="rounded=1;whiteSpace=wrap;html=1;" vertex="1" parent="1">
          <mxGeometry x="820" y="970" width="120" height="50" as="geometry" />
        </mxCell>
        <mxCell id="_HgupfXg40LZJNDoUt4P-186" value="&lt;span style=&quot;font-size: 23px;&quot;&gt;票號&lt;/span&gt;" style="rounded=1;whiteSpace=wrap;html=1;" vertex="1" parent="1">
          <mxGeometry x="940" y="930" width="70" height="40" as="geometry" />
        </mxCell>
        <mxCell id="_HgupfXg40LZJNDoUt4P-187" value="&lt;span style=&quot;font-size: 23px;&quot;&gt;車次&lt;/span&gt;" style="rounded=1;whiteSpace=wrap;html=1;" vertex="1" parent="1">
          <mxGeometry x="1020" y="930" width="70" height="40" as="geometry" />
        </mxCell>
        <mxCell id="_HgupfXg40LZJNDoUt4P-188" value="&lt;span style=&quot;font-size: 23px;&quot;&gt;站名&lt;/span&gt;" style="rounded=1;whiteSpace=wrap;html=1;" vertex="1" parent="1">
          <mxGeometry x="1098" y="930" width="70" height="40" as="geometry" />
        </mxCell>
        <mxCell id="_HgupfXg40LZJNDoUt4P-189" value="&lt;span style=&quot;font-size: 23px;&quot;&gt;票價&lt;/span&gt;" style="rounded=1;whiteSpace=wrap;html=1;" vertex="1" parent="1">
          <mxGeometry x="1170" y="930" width="70" height="40" as="geometry" />
        </mxCell>
        <mxCell id="_HgupfXg40LZJNDoUt4P-190" value="&lt;span style=&quot;font-size: 23px;&quot;&gt;座位號&lt;/span&gt;" style="rounded=1;whiteSpace=wrap;html=1;" vertex="1" parent="1">
          <mxGeometry x="1250" y="930" width="90" height="40" as="geometry" />
        </mxCell>
        <mxCell id="_HgupfXg40LZJNDoUt4P-191" value="&lt;span style=&quot;font-size: 23px;&quot;&gt;全半價&lt;/span&gt;" style="rounded=1;whiteSpace=wrap;html=1;" vertex="1" parent="1">
          <mxGeometry x="1350" y="930" width="80" height="40" as="geometry" />
        </mxCell>
        <mxCell id="_HgupfXg40LZJNDoUt4P-192" value="&lt;span style=&quot;font-size: 23px;&quot;&gt;退票否&lt;/span&gt;" style="rounded=1;whiteSpace=wrap;html=1;" vertex="1" parent="1">
          <mxGeometry x="1440" y="930" width="90" height="40" as="geometry" />
        </mxCell>
        <mxCell id="_HgupfXg40LZJNDoUt4P-193" value="&lt;span style=&quot;font-size: 23px;&quot;&gt;乘車日期&lt;/span&gt;" style="rounded=1;whiteSpace=wrap;html=1;" vertex="1" parent="1">
          <mxGeometry x="1270" y="700" width="120" height="40" as="geometry" />
        </mxCell>
        <mxCell id="_HgupfXg40LZJNDoUt4P-194" value="&lt;span style=&quot;font-size: 23px;&quot;&gt;工號&lt;/span&gt;" style="rounded=1;whiteSpace=wrap;html=1;" vertex="1" parent="1">
          <mxGeometry x="1430" y="700" width="90" height="50" as="geometry" />
        </mxCell>
        <mxCell id="_HgupfXg40LZJNDoUt4P-195" value="&lt;span style=&quot;font-size: 23px;&quot;&gt;姓名&lt;/span&gt;" style="rounded=1;whiteSpace=wrap;html=1;" vertex="1" parent="1">
          <mxGeometry x="1520" y="700" width="90" height="50" as="geometry" />
        </mxCell>
        <mxCell id="_HgupfXg40LZJNDoUt4P-196" value="&lt;font style=&quot;font-size: 23px;&quot;&gt;計費&lt;/font&gt;" style="rhombus;whiteSpace=wrap;html=1;" vertex="1" parent="1">
          <mxGeometry x="1070" y="645" width="100" height="100" as="geometry" />
        </mxCell>
        <mxCell id="_HgupfXg40LZJNDoUt4P-197" value="&lt;font style=&quot;font-size: 23px;&quot;&gt;退票&lt;/font&gt;" style="rhombus;whiteSpace=wrap;html=1;" vertex="1" parent="1">
          <mxGeometry x="860" y="685" width="140" height="80" as="geometry" />
        </mxCell>
        <mxCell id="_HgupfXg40LZJNDoUt4P-198" value="&lt;font style=&quot;font-size: 23px;&quot;&gt;預購&lt;/font&gt;" style="rhombus;whiteSpace=wrap;html=1;" vertex="1" parent="1">
          <mxGeometry x="860" y="790" width="120" height="90" as="geometry" />
        </mxCell>
        <mxCell id="_HgupfXg40LZJNDoUt4P-199" value="&lt;font style=&quot;font-size: 23px;&quot;&gt;售票&lt;/font&gt;" style="rhombus;whiteSpace=wrap;html=1;" vertex="1" parent="1">
          <mxGeometry x="1270" y="790" width="140" height="90" as="geometry" />
        </mxCell>
        <mxCell id="_HgupfXg40LZJNDoUt4P-200" value="&lt;font style=&quot;font-size: 23px;&quot;&gt;車票&lt;/font&gt;" style="rounded=0;whiteSpace=wrap;html=1;" vertex="1" parent="1">
          <mxGeometry x="1070" y="810" width="100" height="50" as="geometry" />
        </mxCell>
        <mxCell id="_HgupfXg40LZJNDoUt4P-201" value="&lt;font style=&quot;font-size: 23px;&quot;&gt;售票員&lt;/font&gt;" style="rounded=0;whiteSpace=wrap;html=1;" vertex="1" parent="1">
          <mxGeometry x="1480" y="810" width="100" height="50" as="geometry" />
        </mxCell>
        <mxCell id="_HgupfXg40LZJNDoUt4P-202" value="&lt;font style=&quot;font-size: 23px;&quot;&gt;n&lt;/font&gt;" style="text;html=1;strokeColor=none;fillColor=none;align=center;verticalAlign=middle;whiteSpace=wrap;rounded=0;" vertex="1" parent="1">
          <mxGeometry x="1030" y="750" width="60" height="30" as="geometry" />
        </mxCell>
        <mxCell id="_HgupfXg40LZJNDoUt4P-203" value="&lt;font style=&quot;font-size: 23px;&quot;&gt;n&lt;/font&gt;" style="text;html=1;strokeColor=none;fillColor=none;align=center;verticalAlign=middle;whiteSpace=wrap;rounded=0;" vertex="1" parent="1">
          <mxGeometry x="1120" y="760" width="60" height="30" as="geometry" />
        </mxCell>
        <mxCell id="_HgupfXg40LZJNDoUt4P-204" value="&lt;font style=&quot;font-size: 23px;&quot;&gt;n&lt;/font&gt;" style="text;html=1;strokeColor=none;fillColor=none;align=center;verticalAlign=middle;whiteSpace=wrap;rounded=0;" vertex="1" parent="1">
          <mxGeometry x="1190" y="797" width="60" height="30" as="geometry" />
        </mxCell>
        <mxCell id="_HgupfXg40LZJNDoUt4P-205" value="&lt;font style=&quot;font-size: 23px;&quot;&gt;n&lt;/font&gt;" style="text;html=1;strokeColor=none;fillColor=none;align=center;verticalAlign=middle;whiteSpace=wrap;rounded=0;" vertex="1" parent="1">
          <mxGeometry x="980" y="797" width="60" height="30" as="geometry" />
        </mxCell>
        <mxCell id="_HgupfXg40LZJNDoUt4P-206" value="&lt;font style=&quot;font-size: 23px;&quot;&gt;1&lt;/font&gt;" style="text;html=1;strokeColor=none;fillColor=none;align=center;verticalAlign=middle;whiteSpace=wrap;rounded=0;" vertex="1" parent="1">
          <mxGeometry x="1120" y="590" width="60" height="30" as="geometry" />
        </mxCell>
        <mxCell id="_HgupfXg40LZJNDoUt4P-207" value="&lt;font style=&quot;font-size: 23px;&quot;&gt;1&lt;/font&gt;" style="text;html=1;strokeColor=none;fillColor=none;align=center;verticalAlign=middle;whiteSpace=wrap;rounded=0;" vertex="1" parent="1">
          <mxGeometry x="750" y="750" width="60" height="30" as="geometry" />
        </mxCell>
        <mxCell id="_HgupfXg40LZJNDoUt4P-208" value="&lt;font style=&quot;font-size: 23px;&quot;&gt;1&lt;/font&gt;" style="text;html=1;strokeColor=none;fillColor=none;align=center;verticalAlign=middle;whiteSpace=wrap;rounded=0;" vertex="1" parent="1">
          <mxGeometry x="790" y="800" width="60" height="30" as="geometry" />
        </mxCell>
        <mxCell id="_HgupfXg40LZJNDoUt4P-209" value="&lt;font style=&quot;font-size: 23px;&quot;&gt;1&lt;/font&gt;" style="text;html=1;strokeColor=none;fillColor=none;align=center;verticalAlign=middle;whiteSpace=wrap;rounded=0;" vertex="1" parent="1">
          <mxGeometry x="1410" y="800" width="60" height="30" as="geometry" />
        </mxCell>
        <mxCell id="_HgupfXg40LZJNDoUt4P-210" value="" style="endArrow=none;html=1;rounded=0;entryX=0.5;entryY=1;entryDx=0;entryDy=0;exitX=0.5;exitY=0;exitDx=0;exitDy=0;" edge="1" parent="1" source="_HgupfXg40LZJNDoUt4P-196" target="_HgupfXg40LZJNDoUt4P-169">
          <mxGeometry width="50" height="50" relative="1" as="geometry">
            <mxPoint x="820" y="510" as="sourcePoint" />
            <mxPoint x="870" y="460" as="targetPoint" />
          </mxGeometry>
        </mxCell>
        <mxCell id="_HgupfXg40LZJNDoUt4P-211" value="" style="endArrow=none;html=1;rounded=0;exitX=0.5;exitY=1;exitDx=0;exitDy=0;entryX=0.438;entryY=0.038;entryDx=0;entryDy=0;entryPerimeter=0;" edge="1" parent="1" source="_HgupfXg40LZJNDoUt4P-178" target="_HgupfXg40LZJNDoUt4P-197">
          <mxGeometry width="50" height="50" relative="1" as="geometry">
            <mxPoint x="790" y="510" as="sourcePoint" />
            <mxPoint x="840" y="460" as="targetPoint" />
          </mxGeometry>
        </mxCell>
        <mxCell id="_HgupfXg40LZJNDoUt4P-212" value="" style="endArrow=none;html=1;rounded=0;exitX=0.5;exitY=1;exitDx=0;exitDy=0;entryX=0.5;entryY=0;entryDx=0;entryDy=0;" edge="1" parent="1" source="_HgupfXg40LZJNDoUt4P-179" target="_HgupfXg40LZJNDoUt4P-197">
          <mxGeometry width="50" height="50" relative="1" as="geometry">
            <mxPoint x="790" y="510" as="sourcePoint" />
            <mxPoint x="840" y="460" as="targetPoint" />
          </mxGeometry>
        </mxCell>
        <mxCell id="_HgupfXg40LZJNDoUt4P-213" value="" style="endArrow=none;html=1;rounded=0;exitX=0.5;exitY=1;exitDx=0;exitDy=0;entryX=0.5;entryY=0;entryDx=0;entryDy=0;" edge="1" parent="1" source="_HgupfXg40LZJNDoUt4P-180" target="_HgupfXg40LZJNDoUt4P-197">
          <mxGeometry width="50" height="50" relative="1" as="geometry">
            <mxPoint x="900" y="500" as="sourcePoint" />
            <mxPoint x="950" y="450" as="targetPoint" />
          </mxGeometry>
        </mxCell>
        <mxCell id="_HgupfXg40LZJNDoUt4P-214" value="" style="endArrow=none;html=1;rounded=0;" edge="1" parent="1" target="_HgupfXg40LZJNDoUt4P-181">
          <mxGeometry width="50" height="50" relative="1" as="geometry">
            <mxPoint x="710" y="810" as="sourcePoint" />
            <mxPoint x="610" y="780" as="targetPoint" />
          </mxGeometry>
        </mxCell>
        <mxCell id="_HgupfXg40LZJNDoUt4P-215" value="&lt;font style=&quot;font-size: 23px;&quot;&gt;顧客&lt;/font&gt;" style="rounded=0;whiteSpace=wrap;html=1;" vertex="1" parent="1">
          <mxGeometry x="675" y="810" width="100" height="50" as="geometry" />
        </mxCell>
        <mxCell id="_HgupfXg40LZJNDoUt4P-216" value="" style="endArrow=none;html=1;rounded=0;entryX=0;entryY=0.5;entryDx=0;entryDy=0;exitX=1;exitY=0;exitDx=0;exitDy=0;" edge="1" parent="1" source="_HgupfXg40LZJNDoUt4P-215" target="_HgupfXg40LZJNDoUt4P-197">
          <mxGeometry width="50" height="50" relative="1" as="geometry">
            <mxPoint x="670" y="510" as="sourcePoint" />
            <mxPoint x="720" y="460" as="targetPoint" />
          </mxGeometry>
        </mxCell>
        <mxCell id="_HgupfXg40LZJNDoUt4P-217" value="" style="endArrow=none;html=1;rounded=0;" edge="1" parent="1" source="_HgupfXg40LZJNDoUt4P-215" target="_HgupfXg40LZJNDoUt4P-198">
          <mxGeometry width="50" height="50" relative="1" as="geometry">
            <mxPoint x="620" y="800" as="sourcePoint" />
            <mxPoint x="670" y="750" as="targetPoint" />
          </mxGeometry>
        </mxCell>
        <mxCell id="_HgupfXg40LZJNDoUt4P-218" value="" style="endArrow=none;html=1;rounded=0;" edge="1" parent="1" source="_HgupfXg40LZJNDoUt4P-182" target="_HgupfXg40LZJNDoUt4P-198">
          <mxGeometry width="50" height="50" relative="1" as="geometry">
            <mxPoint x="550" y="910" as="sourcePoint" />
            <mxPoint x="600" y="860" as="targetPoint" />
          </mxGeometry>
        </mxCell>
        <mxCell id="_HgupfXg40LZJNDoUt4P-219" value="" style="endArrow=none;html=1;rounded=0;" edge="1" parent="1" source="_HgupfXg40LZJNDoUt4P-183" target="_HgupfXg40LZJNDoUt4P-198">
          <mxGeometry width="50" height="50" relative="1" as="geometry">
            <mxPoint x="610" y="910" as="sourcePoint" />
            <mxPoint x="660" y="860" as="targetPoint" />
          </mxGeometry>
        </mxCell>
        <mxCell id="_HgupfXg40LZJNDoUt4P-220" value="" style="endArrow=none;html=1;rounded=0;" edge="1" parent="1" source="_HgupfXg40LZJNDoUt4P-184" target="_HgupfXg40LZJNDoUt4P-198">
          <mxGeometry width="50" height="50" relative="1" as="geometry">
            <mxPoint x="600" y="790" as="sourcePoint" />
            <mxPoint x="650" y="740" as="targetPoint" />
          </mxGeometry>
        </mxCell>
        <mxCell id="_HgupfXg40LZJNDoUt4P-221" value="" style="endArrow=none;html=1;rounded=0;" edge="1" parent="1" source="_HgupfXg40LZJNDoUt4P-185" target="_HgupfXg40LZJNDoUt4P-198">
          <mxGeometry width="50" height="50" relative="1" as="geometry">
            <mxPoint x="950" y="900" as="sourcePoint" />
            <mxPoint x="1000" y="850" as="targetPoint" />
            <Array as="points">
              <mxPoint x="920" y="960" />
              <mxPoint x="930" y="910" />
            </Array>
          </mxGeometry>
        </mxCell>
        <mxCell id="_HgupfXg40LZJNDoUt4P-222" value="" style="endArrow=none;html=1;rounded=0;" edge="1" parent="1" source="_HgupfXg40LZJNDoUt4P-186" target="_HgupfXg40LZJNDoUt4P-200">
          <mxGeometry width="50" height="50" relative="1" as="geometry">
            <mxPoint x="1000" y="910" as="sourcePoint" />
            <mxPoint x="1050" y="860" as="targetPoint" />
          </mxGeometry>
        </mxCell>
        <mxCell id="_HgupfXg40LZJNDoUt4P-223" value="" style="endArrow=none;html=1;rounded=0;" edge="1" parent="1" source="_HgupfXg40LZJNDoUt4P-187" target="_HgupfXg40LZJNDoUt4P-200">
          <mxGeometry width="50" height="50" relative="1" as="geometry">
            <mxPoint x="1050" y="1080" as="sourcePoint" />
            <mxPoint x="1100" y="1030" as="targetPoint" />
          </mxGeometry>
        </mxCell>
        <mxCell id="_HgupfXg40LZJNDoUt4P-224" value="" style="endArrow=none;html=1;rounded=0;exitX=0;exitY=0.5;exitDx=0;exitDy=0;entryX=1;entryY=0.5;entryDx=0;entryDy=0;" edge="1" parent="1" source="_HgupfXg40LZJNDoUt4P-200" target="_HgupfXg40LZJNDoUt4P-197">
          <mxGeometry width="50" height="50" relative="1" as="geometry">
            <mxPoint x="1330" y="570" as="sourcePoint" />
            <mxPoint x="1380" y="520" as="targetPoint" />
          </mxGeometry>
        </mxCell>
        <mxCell id="_HgupfXg40LZJNDoUt4P-225" value="" style="endArrow=none;html=1;rounded=0;" edge="1" parent="1" source="_HgupfXg40LZJNDoUt4P-200" target="_HgupfXg40LZJNDoUt4P-198">
          <mxGeometry width="50" height="50" relative="1" as="geometry">
            <mxPoint x="760" y="510" as="sourcePoint" />
            <mxPoint x="810" y="460" as="targetPoint" />
          </mxGeometry>
        </mxCell>
        <mxCell id="_HgupfXg40LZJNDoUt4P-226" value="" style="endArrow=none;html=1;rounded=0;" edge="1" parent="1" source="_HgupfXg40LZJNDoUt4P-196" target="_HgupfXg40LZJNDoUt4P-200">
          <mxGeometry width="50" height="50" relative="1" as="geometry">
            <mxPoint x="1330" y="620" as="sourcePoint" />
            <mxPoint x="1380" y="570" as="targetPoint" />
          </mxGeometry>
        </mxCell>
        <mxCell id="_HgupfXg40LZJNDoUt4P-228" value="" style="endArrow=none;html=1;rounded=0;" edge="1" parent="1" source="_HgupfXg40LZJNDoUt4P-200" target="_HgupfXg40LZJNDoUt4P-188">
          <mxGeometry width="50" height="50" relative="1" as="geometry">
            <mxPoint x="1340" y="620" as="sourcePoint" />
            <mxPoint x="1390" y="570" as="targetPoint" />
          </mxGeometry>
        </mxCell>
        <mxCell id="_HgupfXg40LZJNDoUt4P-229" value="" style="endArrow=none;html=1;rounded=0;" edge="1" parent="1" source="_HgupfXg40LZJNDoUt4P-200" target="_HgupfXg40LZJNDoUt4P-189">
          <mxGeometry width="50" height="50" relative="1" as="geometry">
            <mxPoint x="1360" y="610" as="sourcePoint" />
            <mxPoint x="1410" y="560" as="targetPoint" />
          </mxGeometry>
        </mxCell>
        <mxCell id="_HgupfXg40LZJNDoUt4P-230" value="" style="endArrow=none;html=1;rounded=0;" edge="1" parent="1" source="_HgupfXg40LZJNDoUt4P-200" target="_HgupfXg40LZJNDoUt4P-190">
          <mxGeometry width="50" height="50" relative="1" as="geometry">
            <mxPoint x="1340" y="610" as="sourcePoint" />
            <mxPoint x="1390" y="560" as="targetPoint" />
          </mxGeometry>
        </mxCell>
        <mxCell id="_HgupfXg40LZJNDoUt4P-231" value="" style="endArrow=none;html=1;rounded=0;" edge="1" parent="1" source="_HgupfXg40LZJNDoUt4P-200" target="_HgupfXg40LZJNDoUt4P-191">
          <mxGeometry width="50" height="50" relative="1" as="geometry">
            <mxPoint x="1320" y="640" as="sourcePoint" />
            <mxPoint x="1370" y="590" as="targetPoint" />
          </mxGeometry>
        </mxCell>
        <mxCell id="_HgupfXg40LZJNDoUt4P-232" value="" style="endArrow=none;html=1;rounded=0;entryX=0.5;entryY=0;entryDx=0;entryDy=0;" edge="1" parent="1" source="_HgupfXg40LZJNDoUt4P-200" target="_HgupfXg40LZJNDoUt4P-192">
          <mxGeometry width="50" height="50" relative="1" as="geometry">
            <mxPoint x="1420" y="610" as="sourcePoint" />
            <mxPoint x="1470" y="560" as="targetPoint" />
          </mxGeometry>
        </mxCell>
        <mxCell id="_HgupfXg40LZJNDoUt4P-233" value="" style="endArrow=none;html=1;rounded=0;" edge="1" parent="1" source="_HgupfXg40LZJNDoUt4P-200" target="_HgupfXg40LZJNDoUt4P-199">
          <mxGeometry width="50" height="50" relative="1" as="geometry">
            <mxPoint x="1210" y="750" as="sourcePoint" />
            <mxPoint x="1260" y="700" as="targetPoint" />
          </mxGeometry>
        </mxCell>
        <mxCell id="_HgupfXg40LZJNDoUt4P-234" value="" style="endArrow=none;html=1;rounded=0;" edge="1" parent="1" source="_HgupfXg40LZJNDoUt4P-199" target="_HgupfXg40LZJNDoUt4P-201">
          <mxGeometry width="50" height="50" relative="1" as="geometry">
            <mxPoint x="1430" y="620" as="sourcePoint" />
            <mxPoint x="1480" y="570" as="targetPoint" />
          </mxGeometry>
        </mxCell>
        <mxCell id="_HgupfXg40LZJNDoUt4P-235" value="" style="endArrow=none;html=1;rounded=0;" edge="1" parent="1" source="_HgupfXg40LZJNDoUt4P-199" target="_HgupfXg40LZJNDoUt4P-193">
          <mxGeometry width="50" height="50" relative="1" as="geometry">
            <mxPoint x="1400" y="610" as="sourcePoint" />
            <mxPoint x="1450" y="560" as="targetPoint" />
          </mxGeometry>
        </mxCell>
        <mxCell id="_HgupfXg40LZJNDoUt4P-236" value="" style="endArrow=none;html=1;rounded=0;" edge="1" parent="1" source="_HgupfXg40LZJNDoUt4P-201" target="_HgupfXg40LZJNDoUt4P-194">
          <mxGeometry width="50" height="50" relative="1" as="geometry">
            <mxPoint x="1460" y="590" as="sourcePoint" />
            <mxPoint x="1510" y="540" as="targetPoint" />
          </mxGeometry>
        </mxCell>
        <mxCell id="_HgupfXg40LZJNDoUt4P-237" value="" style="endArrow=none;html=1;rounded=0;" edge="1" parent="1" source="_HgupfXg40LZJNDoUt4P-201" target="_HgupfXg40LZJNDoUt4P-195">
          <mxGeometry width="50" height="50" relative="1" as="geometry">
            <mxPoint x="1490" y="630" as="sourcePoint" />
            <mxPoint x="1540" y="580" as="targetPoint" />
          </mxGeometry>
        </mxCell>
      </root>
    </mxGraphModel>
  </diagram>
</mxfile>
